<svg width="53" height="28" viewBox="0 0 53 28" fill="none" xmlns="http://www.w3.org/2000/svg">
<path fill-rule="evenodd" clip-rule="evenodd" d="M10.0787 0.0674253C9.86805 0.142521 9.46434 0.507172 9.31729 0.75503C9.24771 0.872431 9.17543 1.61651 9.14536 2.52616L9.0935 4.09488L7.07134 4.15105C5.95915 4.18192 5.03528 4.21603 5.01827 4.22696C5.00127 4.23779 4.92546 4.39021 4.84997 4.5656C4.65574 5.01638 4.78194 5.37536 5.21002 5.58952C5.5403 5.75469 5.96776 5.76633 10.7877 5.74133L16.0076 5.71421L16.2579 5.43022C16.5648 5.08196 16.5758 4.76285 16.2931 4.41217L16.0783 4.14549H13.4414H10.8046V2.88039V1.6153H24.5454H38.2862L38.2599 12.1662L38.2334 22.7171L32.1899 22.7432C27.4084 22.7638 26.1369 22.7427 26.101 22.642C25.6194 21.2897 25.1838 20.6409 24.335 20.0115C22.9872 19.012 21.057 18.8627 19.5008 19.6375C18.5596 20.1061 17.6975 21.1234 17.3207 22.2097L17.1447 22.7171L13.9746 22.7438L10.8046 22.7706V20.4413V18.1121H12.2045C13.4663 18.1121 13.625 18.0921 13.8119 17.9097C14.1272 17.602 14.1222 17.0677 13.8008 16.7458C13.6037 16.5484 13.4622 16.5434 7.99283 16.5434H2.38687L2.13653 16.8274C1.82958 17.1757 1.81859 17.4948 2.10128 17.8455L2.31614 18.1121H5.7308H9.14536V20.9853C9.14536 23.6629 9.15884 23.8748 9.34353 24.0975L9.5416 24.3364L13.3505 24.387L17.1595 24.4376L17.2834 24.8425C17.7667 26.4218 19.187 27.6332 20.915 27.9396C23.0037 28.3102 25.3342 26.9322 25.9224 24.9788L26.1004 24.3873L33.6251 24.3871L41.1497 24.387L41.282 24.891C41.5684 25.9816 42.5386 27.056 43.7099 27.5793C46.1592 28.6737 48.9925 27.4871 49.8912 24.9907L50.0903 24.4376L51.0626 24.387C52.141 24.3308 52.4636 24.1946 52.8119 23.6478C53.007 23.3411 53.0163 23.1688 52.9884 20.3387C52.9594 17.4005 52.9548 17.3435 52.6957 16.7458C52.5511 16.4119 51.3944 14.3169 50.1254 12.0903C47.6988 7.83228 47.3886 7.39881 46.6204 7.19062C46.3744 7.12393 45.0028 7.08142 43.087 7.08112L39.9557 7.08051L39.9241 4.01898C39.893 0.999244 39.8893 0.952891 39.6511 0.627002C39.1558 -0.0506841 40.2697 -0.00483686 24.5242 0.0039682C16.6647 0.00832013 10.1642 0.0369618 10.0787 0.0674253ZM9.61201 7.50639C9.16568 7.75617 9.1521 7.84088 9.14867 10.3951L9.14536 12.8493H7.89628C6.70828 12.8493 6.63466 12.8615 6.39262 13.0978C6.0558 13.4264 6.0558 13.8916 6.39262 14.2202L6.6471 14.4687H14.2599C21.8044 14.4687 21.875 14.4667 22.1458 14.2589C22.5318 13.9626 22.5318 13.3554 22.1458 13.0591C21.8771 12.8529 21.7801 12.8493 16.3386 12.8493H10.8046V10.4126V7.97579L10.5015 7.67996C10.1784 7.3647 9.94613 7.31936 9.61201 7.50639ZM0.250218 8.7562C-0.104335 8.9985 -0.076543 9.72456 0.298335 10.0123C0.570031 10.2209 0.65434 10.2254 3.72969 10.1968L6.8825 10.1673L7.08057 9.92839C7.35569 9.59673 7.33661 9.09181 7.03878 8.81865C6.80317 8.60267 6.74043 8.59862 3.63968 8.59862C0.948331 8.59862 0.446523 8.6219 0.250218 8.7562ZM46.3352 8.8898C46.6777 9.28005 51.0533 17.0692 51.1994 17.5486C51.3142 17.9251 51.3516 18.6282 51.3516 20.4125V22.7773L50.7218 22.7473L50.092 22.7171L49.9164 22.2097C49.1339 19.9486 46.7868 18.6904 44.4513 19.2803C42.9567 19.6578 41.6814 20.8613 41.2386 22.3123C41.1152 22.7168 41.1145 22.7171 40.5298 22.7475L39.9445 22.7778V15.7388V8.69983H43.0565C45.9722 8.69983 46.1791 8.71177 46.3352 8.8898ZM22.5137 20.9021C23.1532 21.0874 23.8859 21.6953 24.2045 22.3048C24.5004 22.8709 24.5635 23.8242 24.3471 24.4601C24.1222 25.1209 23.5635 25.7463 22.9 26.0799C22.2523 26.4057 21.1635 26.4462 20.5196 26.1686C19.9216 25.9108 19.2558 25.2554 18.9983 24.6711C18.7144 24.0273 18.7379 22.9426 19.0492 22.3166C19.4802 21.4499 20.5769 20.761 21.5446 20.7488C21.7767 20.7459 22.2128 20.8149 22.5137 20.9021ZM46.6158 20.9484C48.5878 21.6684 49.0944 24.2509 47.5332 25.6245C46.9377 26.1484 46.4435 26.3366 45.648 26.3424C44.0453 26.3539 42.8698 25.2917 42.7677 23.7397C42.7084 22.8375 42.9596 22.1914 43.6127 21.5659C44.4278 20.7851 45.5416 20.5561 46.6158 20.9484Z" fill="white"/>
</svg>
