<svg width="158" height="67" viewBox="0 0 158 67" fill="none" xmlns="http://www.w3.org/2000/svg">
<path d="M19.7549 1.05638L22.2256 19.2956L14.5503 40.6711L4.05849 45.4753L19.7549 1.05638Z" fill="#FF6F61"/>
<path d="M19.7829 0.929558L18.0376 21.9046L29.0042 55.2244L37.8561 55.2244L19.7829 0.929558Z" fill="#FF6F61"/>
<path d="M21.5581 39.1196L22.4732 41.824L2.09521 51.1584L3.39786 47.5163L21.5581 39.1196Z" fill="#FF6F61"/>
<path d="M22.9074 43.2661L23.7794 45.9903L3.72615 55.2167L0.651941 55.2167L1.40481 53.1241L22.9074 43.2661Z" fill="#FF6F61"/>
<path d="M42.7195 66.18L59.5795 28.62H65.6995L49.3195 66.18H42.7195ZM49.2595 54.18L36.8995 28.62H44.4595L54.4195 50.76L49.2595 54.18ZM73.6054 17.46H80.3854V28.62H86.9854V33.9H80.3854V54H73.6054V33.9H69.2854V28.62H73.6054V17.46ZM91.4883 41.04C91.4883 38.48 92.0883 36.18 93.2883 34.14C94.4883 32.06 96.1683 30.44 98.3283 29.28C100.528 28.08 103.008 27.48 105.768 27.48C108.608 27.48 111.068 28.08 113.148 29.28C115.268 30.44 116.908 32.06 118.068 34.14C119.228 36.18 119.808 38.48 119.808 41.04C119.808 43.6 119.228 45.92 118.068 48C116.908 50.04 115.268 51.66 113.148 52.86C111.068 54.06 108.588 54.66 105.708 54.66C102.988 54.66 100.548 54.12 98.3883 53.04C96.2283 51.92 94.5283 50.34 93.2883 48.3C92.0883 46.26 91.4883 43.84 91.4883 41.04ZM98.2683 41.1C98.2683 42.58 98.5883 43.94 99.2283 45.18C99.8683 46.38 100.748 47.34 101.868 48.06C102.988 48.78 104.228 49.14 105.588 49.14C107.068 49.14 108.348 48.78 109.428 48.06C110.548 47.34 111.408 46.38 112.008 45.18C112.648 43.94 112.968 42.58 112.968 41.1C112.968 39.58 112.648 38.22 112.008 37.02C111.408 35.78 110.548 34.8 109.428 34.08C108.348 33.36 107.068 33 105.588 33C104.188 33 102.928 33.38 101.808 34.14C100.728 34.86 99.8683 35.82 99.2283 37.02C98.5883 38.22 98.2683 39.58 98.2683 41.1ZM132.93 28.62L133.53 35.82L133.29 34.8C134.01 33.28 134.99 31.98 136.23 30.9C137.51 29.78 138.81 28.94 140.13 28.38C141.45 27.78 142.53 27.48 143.37 27.48L143.07 34.2C141.15 34.04 139.47 34.4 138.03 35.28C136.63 36.12 135.53 37.24 134.73 38.64C133.97 40.04 133.59 41.52 133.59 43.08V54H126.87V28.62H132.93Z" fill="#11161E"/>
</svg>
